<?xml version="1.0" encoding="utf-8"?>
<!-- Generator: Adobe Illustrator 19.2.1, SVG Export Plug-In . SVG Version: 6.00 Build 0)  -->
<svg version="1.1" id="Layer_1" xmlns="http://www.w3.org/2000/svg" xmlns:xlink="http://www.w3.org/1999/xlink" x="0px" y="0px"
	 viewBox="0 0 500 500" style="enable-background:new 0 0 500 500;" xml:space="preserve">
<style type="text/css">
	.st0{clip-path:url(#SVGID_2_);}
	.st1{fill:#0A0C06;}
	.st2{clip-path:url(#SVGID_4_);}
	.st3{fill:#FF3131;}
	.st4{clip-path:url(#SVGID_6_);}
	.st5{fill:#322F30;}
	.st6{clip-path:url(#SVGID_8_);}
	.st7{fill:#BB1407;}
	.st8{clip-path:url(#SVGID_10_);}
	.st9{clip-path:url(#SVGID_12_);}
	.st10{clip-path:url(#SVGID_14_);}
	.st11{clip-path:url(#SVGID_16_);}
</style>
<g>
	<defs>
		<rect id="SVGID_1_" x="208" y="119.6" width="108" height="147"/>
	</defs>
	<clipPath id="SVGID_2_">
		<use xlink:href="#SVGID_1_"  style="overflow:visible;"/>
	</clipPath>
	<g class="st0">
		<path class="st1" d="M276.4,222.6l29,43.5h-44.5L233,224.2l-24.4-36.6c0,0,54.9,0,55,0c8.5,0,15.7-7.2,15.7-15.7
			c0-8.7-7-15.7-15.7-15.7h-13.2l-24.4-36.6h37.6c28.9,0,52.3,23.4,52.3,52.3c0,14.4-5.9,27.5-15.3,37
			C294,215.4,285.3,220.4,276.4,222.6"/>
	</g>
</g>
<g>
	<defs>
		<rect id="SVGID_3_" x="163.1" y="119.6" width="70.2" height="37.8"/>
	</defs>
	<clipPath id="SVGID_4_">
		<use xlink:href="#SVGID_3_"  style="overflow:visible;"/>
	</clipPath>
	<g class="st2">
		<path class="st3" d="M232.1,156.2h-44.5l-24.4-36.6h44.5L232.1,156.2z"/>
	</g>
</g>
<g>
	<defs>
		<rect id="SVGID_5_" x="208" y="137.3" width="90.7" height="129.2"/>
	</defs>
	<clipPath id="SVGID_6_">
		<use xlink:href="#SVGID_5_"  style="overflow:visible;"/>
	</clipPath>
	<g class="st4">
		<path class="st5" d="M262.9,207.1H246l11.4,17.1l27.9,41.9h-24.4l-17.6-26.4l-34.7-52.1c0,0,54.9,0,55,0c8.5,0,15.7-7.2,15.7-15.7
			c0-8.7-7-15.7-15.7-15.7h-13.2l-12.2-18.3h24.8c19.1,0,34.6,15.5,34.6,34.6C297.5,191.6,282,207.1,262.9,207.1"/>
	</g>
</g>
<g>
	<defs>
		<rect id="SVGID_7_" x="163.1" y="119.6" width="70.2" height="37.8"/>
	</defs>
	<clipPath id="SVGID_8_">
		<use xlink:href="#SVGID_7_"  style="overflow:visible;"/>
	</clipPath>
	<g class="st6">
		<path class="st7" d="M163.2,119.6l24.4,36.6h44.5l-12.2-18.3h-18.5c-14.3,0-27.8-6.2-37.1-17L163.2,119.6z"/>
	</g>
</g>
<g>
	<g transform="translate(45.369435, 256.931614)">
		<path class="st1" d="M42.1,86.6c-3.6,0-7-0.6-10-1.7c-3-1.2-5.7-2.8-7.9-4.9c-2.2-2.1-4-4.6-5.2-7.5c-1.2-2.9-1.8-6.1-1.8-9.7
			c0-4.7,1.1-8.9,3.2-12.5c2.1-3.6,5.1-6.4,8.8-8.3c3.8-2,8-3,12.9-3c4.1,0,7.9,0.8,11.2,2.3c3.4,1.5,6.1,3.6,8.2,6.4
			c2.1,2.7,3.4,5.8,3.9,9.4L54,58.2c-0.3-1.8-1.1-3.3-2.2-4.7c-1.1-1.4-2.5-2.5-4.1-3.3c-1.6-0.8-3.4-1.2-5.2-1.2
			c-2.6,0-4.8,0.6-6.8,1.7c-1.9,1.1-3.4,2.7-4.5,4.8c-1.1,2-1.6,4.4-1.6,7.2c0,2.7,0.5,5.1,1.6,7.2c1.1,2,2.6,3.6,4.6,4.8
			c2,1.2,4.2,1.7,6.7,1.7c1.9,0,3.6-0.4,5.2-1.2c1.6-0.8,3-1.9,4.1-3.2c1.1-1.4,1.9-2.9,2.2-4.6l11.5,1.3c-0.3,3.5-1.6,6.6-3.7,9.3
			c-2.1,2.7-4.9,4.8-8.3,6.3C50.1,85.8,46.3,86.6,42.1,86.6z"/>
	</g>
</g>
<g>
	<g transform="translate(89.337358, 256.931614)">
		<path class="st1" d="M57.3,86.6c-5,0-9.5-1-13.3-2.9c-3.8-1.9-6.8-4.7-9-8.3c-2.1-3.6-3.2-7.8-3.2-12.7c0-4.9,1.1-9.1,3.2-12.6
			c2.1-3.6,5.1-6.3,9-8.3C47.8,40,52.3,39,57.3,39c5.1,0,9.5,1,13.3,2.9c3.8,1.9,6.8,4.7,9,8.3c2.2,3.6,3.3,7.8,3.3,12.6
			c0,4.9-1.1,9.1-3.3,12.7c-2.2,3.6-5.1,6.3-9,8.3C66.8,85.6,62.4,86.6,57.3,86.6z M57.3,76.5c2.6,0,4.9-0.6,6.8-1.7
			c2-1.2,3.5-2.8,4.6-4.8c1.1-2.1,1.7-4.4,1.7-7.2c0-2.7-0.6-5.1-1.7-7.1c-1.1-2.1-2.7-3.7-4.6-4.8c-2-1.2-4.2-1.7-6.8-1.7
			c-2.6,0-4.8,0.6-6.8,1.7c-2,1.2-3.5,2.8-4.6,4.8c-1.1,2-1.7,4.4-1.7,7.1c0,2.7,0.6,5.1,1.7,7.2c1.1,2,2.7,3.6,4.6,4.8
			C52.5,75.9,54.7,76.5,57.3,76.5z"/>
	</g>
</g>
<g>
	<g transform="translate(135.273287, 256.931614)">
		<path class="st1" d="M48.7,85.6V40h12.9l16.7,29.9h0.6V40h11.5v45.7H77.5L60.7,55.9h-0.6v29.8H48.7z"/>
	</g>
</g>
<g>
	<g transform="translate(176.553223, 256.931614)">
		<path class="st1" d="M62.4,85.6V40h12.9l16.8,29.9h0.6V40h11.5v45.7H91.2L74.5,55.9h-0.6v29.8H62.4z"/>
	</g>
</g>
<g>
	<g transform="translate(217.833158, 256.931614)">
		<path class="st1" d="M76.2,85.6V40h35v9.6H88.1v9H110v7.9H88.1V76h23.8v9.7H76.2z"/>
	</g>
</g>
<g>
	<g transform="translate(253.257117, 256.931614)">
		<path class="st1" d="M111.4,86.6c-3.6,0-7-0.6-10-1.7c-3-1.2-5.7-2.8-7.9-4.9c-2.2-2.1-4-4.6-5.2-7.5c-1.2-2.9-1.8-6.1-1.8-9.7
			c0-4.7,1.1-8.9,3.2-12.5c2.1-3.6,5.1-6.4,8.8-8.3c3.8-2,8-3,12.9-3c4.1,0,7.9,0.8,11.2,2.3c3.4,1.5,6.1,3.6,8.2,6.4
			c2.1,2.7,3.4,5.8,3.9,9.4l-11.3,1.2c-0.3-1.8-1.1-3.3-2.2-4.7c-1.1-1.4-2.5-2.5-4.1-3.3c-1.6-0.8-3.4-1.2-5.2-1.2
			c-2.6,0-4.8,0.6-6.8,1.7c-1.9,1.1-3.4,2.7-4.5,4.8c-1.1,2-1.6,4.4-1.6,7.2c0,2.7,0.5,5.1,1.6,7.2c1.1,2,2.6,3.6,4.6,4.8
			c2,1.2,4.2,1.7,6.7,1.7c1.9,0,3.6-0.4,5.2-1.2c1.6-0.8,3-1.9,4.1-3.2c1.1-1.4,1.9-2.9,2.2-4.6l11.5,1.3c-0.3,3.5-1.6,6.6-3.7,9.3
			c-2.1,2.7-4.9,4.8-8.3,6.3C119.4,85.8,115.6,86.6,111.4,86.6z"/>
	</g>
</g>
<g>
	<g transform="translate(297.22504, 256.931614)">
		<path class="st1" d="M114.5,85.6V50.1H99.9V40h41.5v10.1h-14.6v35.6H114.5z"/>
	</g>
</g>
<g>
	<g transform="translate(63.774345, 279.993058)">
		<path class="st7" d="M23.2,93.3V76.4h7.6c1.3,0,2.4,0.2,3.3,0.6c0.9,0.4,1.6,1,2.1,1.8c0.5,0.8,0.8,1.6,0.8,2.7
			c0,0.9-0.2,1.8-0.7,2.5c-0.4,0.7-1,1.3-1.8,1.7c-0.8,0.4-1.7,0.6-2.8,0.7l-0.6,0l6,6.9h-2.6l-5.7-6.8h-3.3v6.8H23.2z M25.4,84.9h5
			c1.3,0,2.3-0.3,3.1-0.9c0.8-0.6,1.2-1.4,1.2-2.5c0-1.1-0.4-1.9-1.2-2.5c-0.8-0.6-1.8-0.9-3.1-0.9h-5V84.9z"/>
	</g>
</g>
<g>
	<g transform="translate(80.982298, 279.993058)">
		<path class="st7" d="M28.9,93.3V76.4h11.9v1.9h-9.8v5.5h9v1.6h-9v6.1h10v1.9H28.9z"/>
	</g>
</g>
<g>
	<g transform="translate(96.894254, 279.993058)">
		<path class="st7" d="M34.2,93.3V76.4h11.1v1.9h-8.9v5.5h7.8v1.8h-7.8v7.6H34.2z"/>
	</g>
</g>
<g>
	<g transform="translate(111.852218, 279.993058)">
		<path class="st7" d="M37.7,93.3l6.2-16.9h3.3l6.2,16.9h-2.3l-1.4-3.9h-8.2L40,93.3H37.7z M42,87.7h7.1l-3.5-9.4h-0.2L42,87.7z"/>
	</g>
</g>
<g>
	<g transform="translate(128.790172, 279.993058)">
		<path class="st7" d="M53.1,93.9c-1.3,0-2.5-0.2-3.6-0.6c-1.1-0.4-2-1.1-2.8-1.9c-0.8-0.8-1.4-1.8-1.9-2.9
			c-0.4-1.1-0.6-2.3-0.6-3.6c0-1.3,0.2-2.5,0.6-3.6c0.4-1.1,1.1-2,1.9-2.8c0.8-0.8,1.8-1.4,2.8-1.9c1.1-0.4,2.3-0.7,3.6-0.7
			c1.4,0,2.6,0.3,3.8,0.8c1.2,0.5,2.2,1.3,2.9,2.3c0.8,0.9,1.3,2,1.5,3.3l-2.1,0.3c-0.2-0.9-0.6-1.7-1.1-2.4
			c-0.6-0.7-1.3-1.3-2.2-1.7c-0.8-0.4-1.8-0.6-2.8-0.6c-1.3,0-2.5,0.3-3.5,0.9c-1,0.6-1.8,1.4-2.4,2.5c-0.6,1.1-0.9,2.3-0.9,3.7
			c0,1.4,0.3,2.6,0.9,3.7c0.6,1.1,1.4,1.9,2.4,2.5c1,0.6,2.2,0.9,3.5,0.9c1,0,1.9-0.2,2.8-0.6c0.9-0.4,1.6-0.9,2.2-1.6
			c0.6-0.7,1-1.5,1.1-2.3l2.1,0.3c-0.2,1.2-0.7,2.2-1.5,3.1c-0.8,0.9-1.8,1.7-2.9,2.2C55.8,93.6,54.5,93.9,53.1,93.9z"/>
	</g>
</g>
<g>
	<g transform="translate(148.050119, 279.993058)">
		<path class="st7" d="M59.5,93.9c-1.3,0-2.5-0.2-3.6-0.6c-1.1-0.4-2-1.1-2.8-1.9c-0.8-0.8-1.4-1.8-1.9-2.9
			c-0.4-1.1-0.6-2.3-0.6-3.6c0-1.3,0.2-2.5,0.6-3.6c0.4-1.1,1.1-2,1.9-2.8c0.8-0.8,1.8-1.4,2.8-1.9c1.1-0.4,2.3-0.7,3.6-0.7
			c1.4,0,2.6,0.3,3.8,0.8c1.2,0.5,2.2,1.3,2.9,2.3c0.8,0.9,1.3,2,1.5,3.3l-2.1,0.3c-0.2-0.9-0.6-1.7-1.1-2.4
			c-0.6-0.7-1.3-1.3-2.2-1.7c-0.8-0.4-1.8-0.6-2.8-0.6c-1.3,0-2.5,0.3-3.5,0.9c-1,0.6-1.8,1.4-2.4,2.5c-0.6,1.1-0.9,2.3-0.9,3.7
			c0,1.4,0.3,2.6,0.9,3.7c0.6,1.1,1.4,1.9,2.4,2.5c1,0.6,2.2,0.9,3.5,0.9c1,0,1.9-0.2,2.8-0.6c0.9-0.4,1.6-0.9,2.2-1.6
			c0.6-0.7,1-1.5,1.1-2.3l2.1,0.3c-0.2,1.2-0.7,2.2-1.5,3.1c-0.8,0.9-1.8,1.7-2.9,2.2C62.2,93.6,60.9,93.9,59.5,93.9z"/>
	</g>
</g>
<g>
	<g transform="translate(167.310067, 279.993058)">
		<path class="st7" d="M57.7,93.3V76.4h2.3v16.9H57.7z"/>
	</g>
</g>
<g>
	<g transform="translate(176.400051, 279.993058)">
		<path class="st7" d="M69.1,93.9c-1.8,0-3.4-0.4-4.7-1.1c-1.4-0.8-2.5-1.8-3.3-3.2c-0.8-1.4-1.2-2.9-1.2-4.7c0-1.8,0.4-3.3,1.2-4.7
			c0.8-1.3,1.9-2.4,3.3-3.1c1.4-0.8,2.9-1.1,4.7-1.1c1.8,0,3.4,0.4,4.8,1.1c1.4,0.8,2.5,1.8,3.3,3.1c0.8,1.3,1.2,2.9,1.2,4.7
			c0,1.3-0.2,2.6-0.7,3.6c-0.4,1.1-1.1,2.1-1.9,2.9c-0.8,0.8-1.8,1.4-2.9,1.9C71.7,93.6,70.5,93.9,69.1,93.9z M69.1,91.9
			c1.3,0,2.5-0.3,3.6-0.9c1-0.6,1.9-1.4,2.4-2.5c0.6-1.1,0.9-2.3,0.9-3.7s-0.3-2.6-0.9-3.6c-0.6-1.1-1.4-1.9-2.4-2.5
			c-1-0.6-2.2-0.9-3.6-0.9c-1.3,0-2.5,0.3-3.6,0.9c-1,0.6-1.9,1.4-2.5,2.5c-0.6,1.1-0.9,2.3-0.9,3.6s0.3,2.6,0.9,3.7
			c0.6,1.1,1.4,1.9,2.5,2.5C66.6,91.6,67.8,91.9,69.1,91.9z"/>
	</g>
</g>
<g>
	<g transform="translate(196.451998, 279.993058)">
		<path class="st7" d="M67.4,93.3V76.4H70l8.6,14.1h0.2V76.4h2.1v16.9h-2.6l-8.6-14h-0.2v14H67.4z"/>
	</g>
</g>
<g>
	<g transform="translate(214.019948, 279.993058)">
		<path class="st7" d="M73.3,93.3V76.4h11.9v1.9h-9.8v5.5h9v1.6h-9v6.1h10v1.9H73.3z"/>
	</g>
</g>
<g>
	<g transform="translate(229.931904, 279.993058)">
		<path class="st7" d="M85.1,93.9c-1.4,0-2.7-0.2-3.7-0.7c-1.1-0.5-1.9-1.2-2.5-2.1c-0.6-0.9-0.9-2-0.9-3.2h2.1
			c0,1.3,0.4,2.4,1.3,3.1c0.9,0.8,2.1,1.1,3.7,1.1c1.4,0,2.5-0.3,3.4-0.9c0.8-0.6,1.3-1.4,1.3-2.4c0-0.6-0.1-1.1-0.4-1.4
			c-0.3-0.4-0.7-0.6-1.1-0.9c-0.5-0.2-1-0.4-1.6-0.5c-0.6-0.1-1.2-0.2-1.9-0.3c-0.8-0.1-1.5-0.3-2.3-0.4c-0.8-0.2-1.5-0.4-2.1-0.7
			c-0.6-0.3-1.2-0.8-1.6-1.3c-0.4-0.6-0.6-1.3-0.6-2.3c0-1,0.3-1.9,0.8-2.7c0.5-0.8,1.3-1.4,2.3-1.8c1-0.4,2.2-0.6,3.5-0.6
			c1.4,0,2.6,0.2,3.6,0.7c1,0.5,1.8,1.1,2.4,2c0.6,0.8,0.9,1.8,0.9,3h-2.1c0-1.2-0.5-2.2-1.3-2.9c-0.8-0.7-2-1.1-3.4-1.1
			c-1.4,0-2.4,0.3-3.2,0.9c-0.8,0.6-1.2,1.4-1.2,2.3c0,0.8,0.2,1.3,0.7,1.8c0.5,0.4,1.1,0.7,1.8,0.9c0.8,0.2,1.5,0.3,2.4,0.5
			c0.8,0.1,1.6,0.3,2.3,0.4c0.8,0.2,1.5,0.4,2.1,0.7c0.7,0.3,1.2,0.8,1.6,1.4c0.4,0.6,0.6,1.3,0.6,2.3c0,1-0.3,2-0.9,2.7
			c-0.6,0.8-1.4,1.4-2.4,1.8C87.7,93.6,86.5,93.9,85.1,93.9z"/>
	</g>
</g>
<g>
	<g transform="translate(247.067862, 279.993058)">
		<path class="st7" d="M84.7,93.6c-0.4,0-0.7-0.1-1-0.4s-0.4-0.6-0.4-1c0-0.4,0.1-0.7,0.4-0.9c0.3-0.3,0.6-0.4,1-0.4
			c0.4,0,0.7,0.1,1,0.4c0.3,0.2,0.4,0.5,0.4,0.9c0,0.4-0.1,0.7-0.4,1C85.4,93.5,85.1,93.6,84.7,93.6z"/>
	</g>
</g>
<g>
	<g transform="translate(255.113848, 279.993058)">
		<path class="st7" d="M95.2,93.9c-1.3,0-2.5-0.2-3.6-0.6c-1.1-0.4-2-1.1-2.8-1.9c-0.8-0.8-1.4-1.8-1.9-2.9
			c-0.4-1.1-0.6-2.3-0.6-3.6c0-1.3,0.2-2.5,0.6-3.6c0.4-1.1,1.1-2,1.9-2.8c0.8-0.8,1.8-1.4,2.8-1.9c1.1-0.4,2.3-0.7,3.6-0.7
			c1.4,0,2.6,0.3,3.8,0.8c1.2,0.5,2.2,1.3,2.9,2.3c0.8,0.9,1.3,2,1.5,3.3l-2.1,0.3c-0.2-0.9-0.6-1.7-1.1-2.4
			c-0.6-0.7-1.3-1.3-2.2-1.7c-0.8-0.4-1.8-0.6-2.8-0.6c-1.3,0-2.5,0.3-3.5,0.9c-1,0.6-1.8,1.4-2.4,2.5c-0.6,1.1-0.9,2.3-0.9,3.7
			c0,1.4,0.3,2.6,0.9,3.7c0.6,1.1,1.4,1.9,2.4,2.5c1,0.6,2.2,0.9,3.5,0.9c1,0,1.9-0.2,2.8-0.6c0.9-0.4,1.6-0.9,2.2-1.6
			c0.6-0.7,1-1.5,1.1-2.3l2.1,0.3c-0.2,1.2-0.7,2.2-1.5,3.1c-0.8,0.9-1.8,1.7-2.9,2.2C97.9,93.6,96.6,93.9,95.2,93.9z"/>
	</g>
</g>
<g>
	<g transform="translate(274.373796, 279.993058)">
		<path class="st7" d="M101.8,93.9c-1.8,0-3.4-0.4-4.7-1.1c-1.4-0.8-2.5-1.8-3.3-3.2c-0.8-1.4-1.2-2.9-1.2-4.7
			c0-1.8,0.4-3.3,1.2-4.7c0.8-1.3,1.9-2.4,3.3-3.1c1.4-0.8,2.9-1.1,4.7-1.1c1.8,0,3.4,0.4,4.8,1.1c1.4,0.8,2.5,1.8,3.3,3.1
			c0.8,1.3,1.2,2.9,1.2,4.7c0,1.3-0.2,2.6-0.7,3.6c-0.4,1.1-1.1,2.1-1.9,2.9c-0.8,0.8-1.8,1.4-2.9,1.9
			C104.3,93.6,103.1,93.9,101.8,93.9z M101.8,91.9c1.3,0,2.5-0.3,3.6-0.9c1-0.6,1.9-1.4,2.4-2.5c0.6-1.1,0.9-2.3,0.9-3.7
			s-0.3-2.6-0.9-3.6c-0.6-1.1-1.4-1.9-2.4-2.5c-1-0.6-2.2-0.9-3.6-0.9c-1.3,0-2.5,0.3-3.6,0.9c-1,0.6-1.9,1.4-2.5,2.5
			c-0.6,1.1-0.9,2.3-0.9,3.6s0.3,2.6,0.9,3.7c0.6,1.1,1.4,1.9,2.5,2.5C99.2,91.6,100.4,91.9,101.8,91.9z"/>
	</g>
</g>
<g>
	<g transform="translate(294.425743, 279.993058)">
		<path class="st7" d="M100,93.3V76.4h3.1l6.1,14.2h0.2l6-14.2h3.2v16.9h-2.2v-14h-0.2l-6,14h-1.9l-6-13.9h-0.2v13.9H100z"/>
	</g>
</g>
</svg>
