<?xml version="1.0" encoding="utf-8"?>
<!-- Generator: Adobe Illustrator 19.2.1, SVG Export Plug-In . SVG Version: 6.00 Build 0)  -->
<svg version="1.1" id="Layer_1" xmlns="http://www.w3.org/2000/svg" xmlns:xlink="http://www.w3.org/1999/xlink" x="0px" y="0px"
	 viewBox="0 0 500 500" style="enable-background:new 0 0 500 500;" xml:space="preserve">
<style type="text/css">
	.st0{clip-path:url(#SVGID_2_);}
	.st1{fill:#0A0C06;}
	.st2{clip-path:url(#SVGID_4_);}
	.st3{fill:#FF3131;}
	.st4{clip-path:url(#SVGID_6_);}
	.st5{fill:#322F30;}
	.st6{clip-path:url(#SVGID_8_);}
	.st7{fill:#BB1407;}
	.st8{clip-path:url(#SVGID_10_);}
	.st9{clip-path:url(#SVGID_12_);}
	.st10{clip-path:url(#SVGID_14_);}
	.st11{clip-path:url(#SVGID_16_);}
</style>
<g>
	<defs>
		<rect id="SVGID_9_" x="208" y="119.6" width="108" height="147"/>
	</defs>
	<clipPath id="SVGID_2_">
		<use xlink:href="#SVGID_9_"  style="overflow:visible;"/>
	</clipPath>
	<g class="st0">
		<path class="st1" d="M276.4,222.6l29,43.5h-44.5L233,224.2l-24.4-36.6c0,0,54.9,0,55,0c8.5,0,15.7-7.2,15.7-15.7
			c0-8.7-7-15.7-15.7-15.7h-13.2l-24.4-36.6h37.6c28.9,0,52.3,23.4,52.3,52.3c0,14.4-5.9,27.5-15.3,37
			C294,215.4,285.3,220.4,276.4,222.6"/>
	</g>
</g>
<g>
	<defs>
		<rect id="SVGID_11_" x="163.1" y="119.6" width="70.2" height="37.8"/>
	</defs>
	<clipPath id="SVGID_4_">
		<use xlink:href="#SVGID_11_"  style="overflow:visible;"/>
	</clipPath>
	<g class="st2">
		<path class="st3" d="M232.1,156.2h-44.5l-24.4-36.6h44.5L232.1,156.2z"/>
	</g>
</g>
<g>
	<defs>
		<rect id="SVGID_13_" x="208" y="137.3" width="90.7" height="129.2"/>
	</defs>
	<clipPath id="SVGID_6_">
		<use xlink:href="#SVGID_13_"  style="overflow:visible;"/>
	</clipPath>
	<g class="st4">
		<path class="st5" d="M262.9,207.1H246l11.4,17.1l27.9,41.9h-24.4l-17.6-26.4l-34.7-52.1c0,0,54.9,0,55,0c8.5,0,15.7-7.2,15.7-15.7
			c0-8.7-7-15.7-15.7-15.7h-13.2l-12.2-18.3h24.8c19.1,0,34.6,15.5,34.6,34.6C297.5,191.6,282,207.1,262.9,207.1"/>
	</g>
</g>
<g>
	<defs>
		<rect id="SVGID_15_" x="163.1" y="119.6" width="70.2" height="37.8"/>
	</defs>
	<clipPath id="SVGID_8_">
		<use xlink:href="#SVGID_15_"  style="overflow:visible;"/>
	</clipPath>
	<g class="st6">
		<path class="st7" d="M163.2,119.6l24.4,36.6h44.5l-12.2-18.3h-18.5c-14.3,0-27.8-6.2-37.1-17L163.2,119.6z"/>
	</g>
</g>
</svg>
