<svg xmlns="http://www.w3.org/2000/svg" xmlns:xlink="http://www.w3.org/1999/xlink" width="500" zoomAndPan="magnify" viewBox="0 0 375 374.999991" height="500" preserveAspectRatio="xMidYMid meet" version="1.2"><defs><clipPath id="a777fa7bff"><path d="M 156 89.667969 L 237 89.667969 L 237 199.917969 L 156 199.917969 Z M 156 89.667969 "/></clipPath><clipPath id="17de174c85"><path d="M 122.359375 89.667969 L 175 89.667969 L 175 118 L 122.359375 118 Z M 122.359375 89.667969 "/></clipPath><clipPath id="2b2f1e120e"><path d="M 156 103 L 224 103 L 224 199.917969 L 156 199.917969 Z M 156 103 "/></clipPath><clipPath id="50ee55d67b"><path d="M 122.359375 89.667969 L 175 89.667969 L 175 118 L 122.359375 118 Z M 122.359375 89.667969 "/></clipPath></defs><g id="b103bc3738"><rect x="0" width="375" y="0" height="374.999991" style="fill:#ffffff;fill-opacity:1;stroke:none;"/><rect x="0" width="375" y="0" height="374.999991" style="fill:#ffffff;fill-opacity:1;stroke:none;"/><g clip-rule="nonzero" clip-path="url(#a777fa7bff)"><path style=" stroke:none;fill-rule:evenodd;fill:#0a0c06;fill-opacity:1;" d="M 207.285156 166.984375 L 229.03125 199.589844 L 195.664062 199.589844 L 174.71875 168.183594 L 156.40625 140.703125 C 156.40625 140.703125 197.609375 140.703125 197.625 140.703125 C 204.035156 140.703125 209.40625 135.324219 209.40625 128.925781 C 209.40625 122.429688 204.125 117.148438 197.625 117.148438 L 187.714844 117.148438 L 169.402344 89.667969 L 197.625 89.667969 C 219.316406 89.667969 236.882812 107.234375 236.882812 128.925781 C 236.882812 139.761719 232.488281 149.574219 225.382812 156.679688 C 220.5 161.5625 213.972656 165.28125 207.285156 166.984375 "/></g><g clip-rule="nonzero" clip-path="url(#17de174c85)"><path style=" stroke:none;fill-rule:evenodd;fill:#ff3131;fill-opacity:1;" d="M 174.066406 117.148438 L 140.695312 117.148438 L 122.375 89.667969 L 155.746094 89.667969 Z M 174.066406 117.148438 "/></g><g clip-rule="nonzero" clip-path="url(#2b2f1e120e)"><path style=" stroke:none;fill-rule:evenodd;fill:#322f30;fill-opacity:1;" d="M 197.179688 155.316406 L 184.480469 155.316406 L 193.03125 168.167969 L 213.976562 199.589844 L 195.65625 199.589844 L 182.464844 179.773438 L 156.417969 140.6875 C 156.417969 140.6875 197.609375 140.6875 197.640625 140.6875 C 204.019531 140.6875 209.394531 135.316406 209.394531 128.933594 C 209.394531 122.429688 204.113281 117.148438 197.640625 117.148438 L 187.722656 117.148438 L 178.5625 103.40625 L 197.179688 103.40625 C 211.53125 103.40625 223.136719 115.039062 223.136719 129.363281 C 223.136719 143.679688 211.53125 155.316406 197.179688 155.316406 "/></g><g clip-rule="nonzero" clip-path="url(#50ee55d67b)"><path style=" stroke:none;fill-rule:evenodd;fill:#bb1407;fill-opacity:1;" d="M 122.375 89.667969 L 140.695312 117.148438 L 174.066406 117.148438 L 164.90625 103.40625 L 151.003906 103.40625 C 140.3125 103.40625 130.152344 98.738281 123.195312 90.621094 Z M 122.375 89.667969 "/></g><g style="fill:#0a0c06;fill-opacity:1;"><g transform="translate(45.369435, 256.931614)"><path style="stroke:none" d="M 20.203125 0.71875 C 17.484375 0.71875 14.988281 0.285156 12.71875 -0.578125 C 10.445312 -1.441406 8.46875 -2.664062 6.78125 -4.25 C 5.101562 -5.832031 3.804688 -7.710938 2.890625 -9.890625 C 1.984375 -12.066406 1.53125 -14.484375 1.53125 -17.140625 C 1.53125 -20.691406 2.332031 -23.8125 3.9375 -26.5 C 5.539062 -29.1875 7.75 -31.269531 10.5625 -32.75 C 13.375 -34.238281 16.585938 -34.984375 20.203125 -34.984375 C 23.304688 -34.984375 26.113281 -34.40625 28.625 -33.25 C 31.144531 -32.101562 33.203125 -30.515625 34.796875 -28.484375 C 36.398438 -26.453125 37.363281 -24.109375 37.6875 -21.453125 L 29.1875 -20.546875 C 28.925781 -21.859375 28.367188 -23.03125 27.515625 -24.0625 C 26.671875 -25.101562 25.640625 -25.921875 24.421875 -26.515625 C 23.210938 -27.109375 21.90625 -27.40625 20.5 -27.40625 C 18.570312 -27.40625 16.878906 -26.976562 15.421875 -26.125 C 13.972656 -25.28125 12.835938 -24.085938 12.015625 -22.546875 C 11.203125 -21.015625 10.796875 -19.210938 10.796875 -17.140625 C 10.796875 -15.085938 11.203125 -13.289062 12.015625 -11.75 C 12.835938 -10.21875 13.984375 -9.019531 15.453125 -8.15625 C 16.921875 -7.289062 18.601562 -6.859375 20.5 -6.859375 C 21.90625 -6.859375 23.210938 -7.15625 24.421875 -7.75 C 25.640625 -8.34375 26.671875 -9.148438 27.515625 -10.171875 C 28.367188 -11.203125 28.925781 -12.351562 29.1875 -13.625 L 37.78125 -12.671875 C 37.519531 -10.046875 36.597656 -7.722656 35.015625 -5.703125 C 33.429688 -3.691406 31.359375 -2.117188 28.796875 -0.984375 C 26.234375 0.148438 23.367188 0.71875 20.203125 0.71875 Z M 20.203125 0.71875 "/></g></g><g style="fill:#0a0c06;fill-opacity:1;"><g transform="translate(89.337358, 256.931614)"><path style="stroke:none" d="M 20.640625 0.71875 C 16.859375 0.71875 13.53125 -0.00390625 10.65625 -1.453125 C 7.78125 -2.910156 5.539062 -4.972656 3.9375 -7.640625 C 2.332031 -10.316406 1.53125 -13.484375 1.53125 -17.140625 C 1.53125 -20.785156 2.332031 -23.941406 3.9375 -26.609375 C 5.539062 -29.285156 7.78125 -31.347656 10.65625 -32.796875 C 13.53125 -34.253906 16.859375 -34.984375 20.640625 -34.984375 C 24.453125 -34.984375 27.785156 -34.253906 30.640625 -32.796875 C 33.503906 -31.347656 35.742188 -29.285156 37.359375 -26.609375 C 38.984375 -23.941406 39.796875 -20.785156 39.796875 -17.140625 C 39.796875 -13.484375 38.984375 -10.316406 37.359375 -7.640625 C 35.742188 -4.972656 33.503906 -2.910156 30.640625 -1.453125 C 27.785156 -0.00390625 24.453125 0.71875 20.640625 0.71875 Z M 20.640625 -6.859375 C 22.585938 -6.859375 24.296875 -7.289062 25.765625 -8.15625 C 27.242188 -9.019531 28.398438 -10.21875 29.234375 -11.75 C 30.066406 -13.289062 30.484375 -15.085938 30.484375 -17.140625 C 30.484375 -19.179688 30.066406 -20.96875 29.234375 -22.5 C 28.398438 -24.039062 27.242188 -25.242188 25.765625 -26.109375 C 24.296875 -26.972656 22.585938 -27.40625 20.640625 -27.40625 C 18.722656 -27.40625 17.019531 -26.972656 15.53125 -26.109375 C 14.039062 -25.242188 12.878906 -24.039062 12.046875 -22.5 C 11.210938 -20.96875 10.796875 -19.179688 10.796875 -17.140625 C 10.796875 -15.085938 11.210938 -13.289062 12.046875 -11.75 C 12.878906 -10.21875 14.039062 -9.019531 15.53125 -8.15625 C 17.019531 -7.289062 18.722656 -6.859375 20.640625 -6.859375 Z M 20.640625 -6.859375 "/></g></g><g style="fill:#0a0c06;fill-opacity:1;"><g transform="translate(135.273287, 256.931614)"><path style="stroke:none" d="M 2.6875 0 L 2.6875 -34.265625 L 12.34375 -34.265625 L 24.90625 -11.859375 L 25.34375 -11.859375 L 25.34375 -34.265625 L 33.984375 -34.265625 L 33.984375 0 L 24.28125 0 L 11.71875 -22.3125 L 11.28125 -22.3125 L 11.28125 0 Z M 2.6875 0 "/></g></g><g style="fill:#0a0c06;fill-opacity:1;"><g transform="translate(176.553223, 256.931614)"><path style="stroke:none" d="M 2.6875 0 L 2.6875 -34.265625 L 12.34375 -34.265625 L 24.90625 -11.859375 L 25.34375 -11.859375 L 25.34375 -34.265625 L 33.984375 -34.265625 L 33.984375 0 L 24.28125 0 L 11.71875 -22.3125 L 11.28125 -22.3125 L 11.28125 0 Z M 2.6875 0 "/></g></g><g style="fill:#0a0c06;fill-opacity:1;"><g transform="translate(217.833158, 256.931614)"><path style="stroke:none" d="M 2.6875 0 L 2.6875 -34.265625 L 28.9375 -34.265625 L 28.9375 -27.03125 L 11.609375 -27.03125 L 11.609375 -20.296875 L 28.03125 -20.296875 L 28.03125 -14.40625 L 11.609375 -14.40625 L 11.609375 -7.25 L 29.421875 -7.25 L 29.421875 0 Z M 2.6875 0 "/></g></g><g style="fill:#0a0c06;fill-opacity:1;"><g transform="translate(253.257117, 256.931614)"><path style="stroke:none" d="M 20.203125 0.71875 C 17.484375 0.71875 14.988281 0.285156 12.71875 -0.578125 C 10.445312 -1.441406 8.46875 -2.664062 6.78125 -4.25 C 5.101562 -5.832031 3.804688 -7.710938 2.890625 -9.890625 C 1.984375 -12.066406 1.53125 -14.484375 1.53125 -17.140625 C 1.53125 -20.691406 2.332031 -23.8125 3.9375 -26.5 C 5.539062 -29.1875 7.75 -31.269531 10.5625 -32.75 C 13.375 -34.238281 16.585938 -34.984375 20.203125 -34.984375 C 23.304688 -34.984375 26.113281 -34.40625 28.625 -33.25 C 31.144531 -32.101562 33.203125 -30.515625 34.796875 -28.484375 C 36.398438 -26.453125 37.363281 -24.109375 37.6875 -21.453125 L 29.1875 -20.546875 C 28.925781 -21.859375 28.367188 -23.03125 27.515625 -24.0625 C 26.671875 -25.101562 25.640625 -25.921875 24.421875 -26.515625 C 23.210938 -27.109375 21.90625 -27.40625 20.5 -27.40625 C 18.570312 -27.40625 16.878906 -26.976562 15.421875 -26.125 C 13.972656 -25.28125 12.835938 -24.085938 12.015625 -22.546875 C 11.203125 -21.015625 10.796875 -19.210938 10.796875 -17.140625 C 10.796875 -15.085938 11.203125 -13.289062 12.015625 -11.75 C 12.835938 -10.21875 13.984375 -9.019531 15.453125 -8.15625 C 16.921875 -7.289062 18.601562 -6.859375 20.5 -6.859375 C 21.90625 -6.859375 23.210938 -7.15625 24.421875 -7.75 C 25.640625 -8.34375 26.671875 -9.148438 27.515625 -10.171875 C 28.367188 -11.203125 28.925781 -12.351562 29.1875 -13.625 L 37.78125 -12.671875 C 37.519531 -10.046875 36.597656 -7.722656 35.015625 -5.703125 C 33.429688 -3.691406 31.359375 -2.117188 28.796875 -0.984375 C 26.234375 0.148438 23.367188 0.71875 20.203125 0.71875 Z M 20.203125 0.71875 "/></g></g><g style="fill:#0a0c06;fill-opacity:1;"><g transform="translate(297.22504, 256.931614)"><path style="stroke:none" d="M 11.5625 0 L 11.5625 -26.6875 L 0.625 -26.6875 L 0.625 -34.265625 L 31.78125 -34.265625 L 31.78125 -26.6875 L 20.828125 -26.6875 L 20.828125 0 Z M 11.5625 0 "/></g></g><g style="fill:#bb1407;fill-opacity:1;"><g transform="translate(63.774345, 279.993058)"><path style="stroke:none" d="M 1.421875 0 L 1.421875 -12.6875 L 7.09375 -12.6875 C 8.039062 -12.6875 8.863281 -12.53125 9.5625 -12.21875 C 10.257812 -11.90625 10.796875 -11.460938 11.171875 -10.890625 C 11.546875 -10.328125 11.734375 -9.65625 11.734375 -8.875 C 11.734375 -8.175781 11.566406 -7.554688 11.234375 -7.015625 C 10.910156 -6.472656 10.453125 -6.046875 9.859375 -5.734375 C 9.273438 -5.429688 8.585938 -5.257812 7.796875 -5.21875 L 7.328125 -5.203125 L 11.8125 0 L 9.875 0 L 5.609375 -5.109375 L 3.109375 -5.109375 L 3.109375 0 Z M 3.109375 -6.34375 L 6.875 -6.34375 C 7.832031 -6.34375 8.601562 -6.566406 9.1875 -7.015625 C 9.769531 -7.472656 10.0625 -8.085938 10.0625 -8.859375 C 10.0625 -9.660156 9.769531 -10.28125 9.1875 -10.71875 C 8.613281 -11.164062 7.84375 -11.390625 6.875 -11.390625 L 3.109375 -11.390625 Z M 3.109375 -6.34375 "/></g></g><g style="fill:#bb1407;fill-opacity:1;"><g transform="translate(80.982298, 279.993058)"><path style="stroke:none" d="M 1.4375 0 L 1.4375 -12.6875 L 10.390625 -12.6875 L 10.390625 -11.296875 L 3.0625 -11.296875 L 3.0625 -7.15625 L 9.796875 -7.15625 L 9.796875 -5.9375 L 3.0625 -5.9375 L 3.0625 -1.390625 L 10.5625 -1.390625 L 10.5625 0 Z M 1.4375 0 "/></g></g><g style="fill:#bb1407;fill-opacity:1;"><g transform="translate(96.894254, 279.993058)"><path style="stroke:none" d="M 1.4375 0 L 1.4375 -12.6875 L 9.796875 -12.6875 L 9.796875 -11.234375 L 3.09375 -11.234375 L 3.09375 -7.078125 L 8.90625 -7.078125 L 8.90625 -5.71875 L 3.09375 -5.71875 L 3.09375 0 Z M 1.4375 0 "/></g></g><g style="fill:#bb1407;fill-opacity:1;"><g transform="translate(111.852218, 279.993058)"><path style="stroke:none" d="M 0.328125 0 L 4.96875 -12.6875 L 7.4375 -12.6875 L 12.0625 0 L 10.328125 0 L 9.25 -2.921875 L 3.125 -2.921875 L 2.046875 0 Z M 3.53125 -4.21875 L 8.859375 -4.21875 L 6.265625 -11.234375 L 6.125 -11.234375 Z M 3.53125 -4.21875 "/></g></g><g style="fill:#bb1407;fill-opacity:1;"><g transform="translate(128.790172, 279.993058)"><path style="stroke:none" d="M 7.609375 0.390625 C 6.628906 0.390625 5.726562 0.226562 4.90625 -0.09375 C 4.09375 -0.425781 3.382812 -0.894531 2.78125 -1.5 C 2.1875 -2.101562 1.722656 -2.816406 1.390625 -3.640625 C 1.066406 -4.460938 0.90625 -5.367188 0.90625 -6.359375 C 0.90625 -7.335938 1.066406 -8.238281 1.390625 -9.0625 C 1.722656 -9.882812 2.1875 -10.59375 2.78125 -11.1875 C 3.382812 -11.789062 4.09375 -12.253906 4.90625 -12.578125 C 5.726562 -12.910156 6.628906 -13.078125 7.609375 -13.078125 C 8.640625 -13.078125 9.59375 -12.867188 10.46875 -12.453125 C 11.351562 -12.046875 12.085938 -11.484375 12.671875 -10.765625 C 13.253906 -10.054688 13.625 -9.242188 13.78125 -8.328125 L 12.21875 -8.140625 C 12.09375 -8.796875 11.804688 -9.390625 11.359375 -9.921875 C 10.910156 -10.460938 10.363281 -10.882812 9.71875 -11.1875 C 9.082031 -11.5 8.394531 -11.65625 7.65625 -11.65625 C 6.65625 -11.65625 5.769531 -11.429688 5 -10.984375 C 4.238281 -10.535156 3.640625 -9.910156 3.203125 -9.109375 C 2.773438 -8.316406 2.5625 -7.398438 2.5625 -6.359375 C 2.5625 -5.328125 2.773438 -4.40625 3.203125 -3.59375 C 3.640625 -2.789062 4.238281 -2.164062 5 -1.71875 C 5.769531 -1.269531 6.65625 -1.046875 7.65625 -1.046875 C 8.40625 -1.046875 9.097656 -1.191406 9.734375 -1.484375 C 10.378906 -1.785156 10.925781 -2.195312 11.375 -2.71875 C 11.820312 -3.25 12.109375 -3.832031 12.234375 -4.46875 L 13.8125 -4.234375 C 13.664062 -3.359375 13.300781 -2.570312 12.71875 -1.875 C 12.132812 -1.175781 11.398438 -0.625 10.515625 -0.21875 C 9.640625 0.1875 8.671875 0.390625 7.609375 0.390625 Z M 7.609375 0.390625 "/></g></g><g style="fill:#bb1407;fill-opacity:1;"><g transform="translate(148.050119, 279.993058)"><path style="stroke:none" d="M 7.609375 0.390625 C 6.628906 0.390625 5.726562 0.226562 4.90625 -0.09375 C 4.09375 -0.425781 3.382812 -0.894531 2.78125 -1.5 C 2.1875 -2.101562 1.722656 -2.816406 1.390625 -3.640625 C 1.066406 -4.460938 0.90625 -5.367188 0.90625 -6.359375 C 0.90625 -7.335938 1.066406 -8.238281 1.390625 -9.0625 C 1.722656 -9.882812 2.1875 -10.59375 2.78125 -11.1875 C 3.382812 -11.789062 4.09375 -12.253906 4.90625 -12.578125 C 5.726562 -12.910156 6.628906 -13.078125 7.609375 -13.078125 C 8.640625 -13.078125 9.59375 -12.867188 10.46875 -12.453125 C 11.351562 -12.046875 12.085938 -11.484375 12.671875 -10.765625 C 13.253906 -10.054688 13.625 -9.242188 13.78125 -8.328125 L 12.21875 -8.140625 C 12.09375 -8.796875 11.804688 -9.390625 11.359375 -9.921875 C 10.910156 -10.460938 10.363281 -10.882812 9.71875 -11.1875 C 9.082031 -11.5 8.394531 -11.65625 7.65625 -11.65625 C 6.65625 -11.65625 5.769531 -11.429688 5 -10.984375 C 4.238281 -10.535156 3.640625 -9.910156 3.203125 -9.109375 C 2.773438 -8.316406 2.5625 -7.398438 2.5625 -6.359375 C 2.5625 -5.328125 2.773438 -4.40625 3.203125 -3.59375 C 3.640625 -2.789062 4.238281 -2.164062 5 -1.71875 C 5.769531 -1.269531 6.65625 -1.046875 7.65625 -1.046875 C 8.40625 -1.046875 9.097656 -1.191406 9.734375 -1.484375 C 10.378906 -1.785156 10.925781 -2.195312 11.375 -2.71875 C 11.820312 -3.25 12.109375 -3.832031 12.234375 -4.46875 L 13.8125 -4.234375 C 13.664062 -3.359375 13.300781 -2.570312 12.71875 -1.875 C 12.132812 -1.175781 11.398438 -0.625 10.515625 -0.21875 C 9.640625 0.1875 8.671875 0.390625 7.609375 0.390625 Z M 7.609375 0.390625 "/></g></g><g style="fill:#bb1407;fill-opacity:1;"><g transform="translate(167.310067, 279.993058)"><path style="stroke:none" d="M 1.421875 0 L 1.421875 -12.6875 L 3.109375 -12.6875 L 3.109375 0 Z M 1.421875 0 "/></g></g><g style="fill:#bb1407;fill-opacity:1;"><g transform="translate(176.400051, 279.993058)"><path style="stroke:none" d="M 7.734375 0.390625 C 6.398438 0.390625 5.21875 0.109375 4.1875 -0.453125 C 3.15625 -1.023438 2.34375 -1.816406 1.75 -2.828125 C 1.164062 -3.847656 0.875 -5.023438 0.875 -6.359375 C 0.875 -7.691406 1.164062 -8.859375 1.75 -9.859375 C 2.34375 -10.867188 3.15625 -11.65625 4.1875 -12.21875 C 5.21875 -12.789062 6.398438 -13.078125 7.734375 -13.078125 C 9.078125 -13.078125 10.265625 -12.789062 11.296875 -12.21875 C 12.335938 -11.65625 13.148438 -10.867188 13.734375 -9.859375 C 14.316406 -8.859375 14.609375 -7.691406 14.609375 -6.359375 C 14.609375 -5.359375 14.441406 -4.445312 14.109375 -3.625 C 13.773438 -2.800781 13.296875 -2.085938 12.671875 -1.484375 C 12.054688 -0.890625 11.332031 -0.425781 10.5 -0.09375 C 9.664062 0.226562 8.742188 0.390625 7.734375 0.390625 Z M 7.734375 -1.046875 C 8.742188 -1.046875 9.640625 -1.269531 10.421875 -1.71875 C 11.203125 -2.164062 11.8125 -2.789062 12.25 -3.59375 C 12.695312 -4.40625 12.921875 -5.328125 12.921875 -6.359375 C 12.921875 -7.390625 12.695312 -8.300781 12.25 -9.09375 C 11.8125 -9.894531 11.203125 -10.519531 10.421875 -10.96875 C 9.640625 -11.425781 8.742188 -11.65625 7.734375 -11.65625 C 6.734375 -11.65625 5.84375 -11.425781 5.0625 -10.96875 C 4.28125 -10.519531 3.664062 -9.894531 3.21875 -9.09375 C 2.78125 -8.300781 2.5625 -7.390625 2.5625 -6.359375 C 2.5625 -5.328125 2.78125 -4.410156 3.21875 -3.609375 C 3.664062 -2.804688 4.28125 -2.175781 5.0625 -1.71875 C 5.84375 -1.269531 6.734375 -1.046875 7.734375 -1.046875 Z M 7.734375 -1.046875 "/></g></g><g style="fill:#bb1407;fill-opacity:1;"><g transform="translate(196.451998, 279.993058)"><path style="stroke:none" d="M 1.421875 0 L 1.421875 -12.6875 L 3.390625 -12.6875 L 9.859375 -2.140625 L 10.015625 -2.140625 L 10.015625 -12.6875 L 11.59375 -12.6875 L 11.59375 0 L 9.625 0 L 3.15625 -10.53125 L 3 -10.53125 L 3 0 Z M 1.421875 0 "/></g></g><g style="fill:#bb1407;fill-opacity:1;"><g transform="translate(214.019948, 279.993058)"><path style="stroke:none" d="M 1.4375 0 L 1.4375 -12.6875 L 10.390625 -12.6875 L 10.390625 -11.296875 L 3.0625 -11.296875 L 3.0625 -7.15625 L 9.796875 -7.15625 L 9.796875 -5.9375 L 3.0625 -5.9375 L 3.0625 -1.390625 L 10.5625 -1.390625 L 10.5625 0 Z M 1.4375 0 "/></g></g><g style="fill:#bb1407;fill-opacity:1;"><g transform="translate(229.931904, 279.993058)"><path style="stroke:none" d="M 6.3125 0.390625 C 5.25 0.390625 4.320312 0.207031 3.53125 -0.15625 C 2.738281 -0.53125 2.125 -1.050781 1.6875 -1.71875 C 1.25 -2.394531 1.03125 -3.1875 1.03125 -4.09375 L 2.625 -4.09375 C 2.625 -3.101562 2.957031 -2.328125 3.625 -1.765625 C 4.300781 -1.203125 5.222656 -0.921875 6.390625 -0.921875 C 7.453125 -0.921875 8.296875 -1.140625 8.921875 -1.578125 C 9.554688 -2.023438 9.875 -2.617188 9.875 -3.359375 C 9.875 -3.804688 9.769531 -4.164062 9.5625 -4.4375 C 9.351562 -4.707031 9.070312 -4.921875 8.71875 -5.078125 C 8.363281 -5.242188 7.960938 -5.367188 7.515625 -5.453125 C 7.066406 -5.546875 6.597656 -5.628906 6.109375 -5.703125 C 5.535156 -5.785156 4.960938 -5.890625 4.390625 -6.015625 C 3.816406 -6.140625 3.289062 -6.316406 2.8125 -6.546875 C 2.332031 -6.785156 1.941406 -7.117188 1.640625 -7.546875 C 1.347656 -7.972656 1.203125 -8.535156 1.203125 -9.234375 C 1.203125 -10.003906 1.398438 -10.675781 1.796875 -11.25 C 2.191406 -11.820312 2.753906 -12.269531 3.484375 -12.59375 C 4.222656 -12.914062 5.097656 -13.078125 6.109375 -13.078125 C 7.148438 -13.078125 8.050781 -12.90625 8.8125 -12.5625 C 9.570312 -12.21875 10.160156 -11.726562 10.578125 -11.09375 C 11.003906 -10.457031 11.21875 -9.707031 11.21875 -8.84375 L 9.671875 -8.84375 C 9.648438 -9.75 9.328125 -10.46875 8.703125 -11 C 8.078125 -11.53125 7.226562 -11.796875 6.15625 -11.796875 C 5.132812 -11.796875 4.332031 -11.5625 3.75 -11.09375 C 3.164062 -10.632812 2.875 -10.050781 2.875 -9.34375 C 2.875 -8.769531 3.046875 -8.332031 3.390625 -8.03125 C 3.742188 -7.726562 4.203125 -7.503906 4.765625 -7.359375 C 5.328125 -7.222656 5.925781 -7.109375 6.5625 -7.015625 C 7.144531 -6.929688 7.726562 -6.828125 8.3125 -6.703125 C 8.90625 -6.578125 9.441406 -6.394531 9.921875 -6.15625 C 10.410156 -5.914062 10.804688 -5.578125 11.109375 -5.140625 C 11.410156 -4.710938 11.5625 -4.148438 11.5625 -3.453125 C 11.5625 -2.671875 11.34375 -1.988281 10.90625 -1.40625 C 10.476562 -0.832031 9.875 -0.390625 9.09375 -0.078125 C 8.3125 0.234375 7.382812 0.390625 6.3125 0.390625 Z M 6.3125 0.390625 "/></g></g><g style="fill:#bb1407;fill-opacity:1;"><g transform="translate(247.067862, 279.993058)"><path style="stroke:none" d="M 1.75 0.203125 C 1.457031 0.203125 1.21875 0.109375 1.03125 -0.078125 C 0.84375 -0.265625 0.75 -0.507812 0.75 -0.8125 C 0.75 -1.082031 0.84375 -1.304688 1.03125 -1.484375 C 1.21875 -1.671875 1.457031 -1.765625 1.75 -1.765625 C 2.050781 -1.765625 2.289062 -1.671875 2.46875 -1.484375 C 2.65625 -1.304688 2.75 -1.082031 2.75 -0.8125 C 2.75 -0.507812 2.65625 -0.265625 2.46875 -0.078125 C 2.289062 0.109375 2.050781 0.203125 1.75 0.203125 Z M 1.75 0.203125 "/></g></g><g style="fill:#bb1407;fill-opacity:1;"><g transform="translate(255.113848, 279.993058)"><path style="stroke:none" d="M 7.609375 0.390625 C 6.628906 0.390625 5.726562 0.226562 4.90625 -0.09375 C 4.09375 -0.425781 3.382812 -0.894531 2.78125 -1.5 C 2.1875 -2.101562 1.722656 -2.816406 1.390625 -3.640625 C 1.066406 -4.460938 0.90625 -5.367188 0.90625 -6.359375 C 0.90625 -7.335938 1.066406 -8.238281 1.390625 -9.0625 C 1.722656 -9.882812 2.1875 -10.59375 2.78125 -11.1875 C 3.382812 -11.789062 4.09375 -12.253906 4.90625 -12.578125 C 5.726562 -12.910156 6.628906 -13.078125 7.609375 -13.078125 C 8.640625 -13.078125 9.59375 -12.867188 10.46875 -12.453125 C 11.351562 -12.046875 12.085938 -11.484375 12.671875 -10.765625 C 13.253906 -10.054688 13.625 -9.242188 13.78125 -8.328125 L 12.21875 -8.140625 C 12.09375 -8.796875 11.804688 -9.390625 11.359375 -9.921875 C 10.910156 -10.460938 10.363281 -10.882812 9.71875 -11.1875 C 9.082031 -11.5 8.394531 -11.65625 7.65625 -11.65625 C 6.65625 -11.65625 5.769531 -11.429688 5 -10.984375 C 4.238281 -10.535156 3.640625 -9.910156 3.203125 -9.109375 C 2.773438 -8.316406 2.5625 -7.398438 2.5625 -6.359375 C 2.5625 -5.328125 2.773438 -4.40625 3.203125 -3.59375 C 3.640625 -2.789062 4.238281 -2.164062 5 -1.71875 C 5.769531 -1.269531 6.65625 -1.046875 7.65625 -1.046875 C 8.40625 -1.046875 9.097656 -1.191406 9.734375 -1.484375 C 10.378906 -1.785156 10.925781 -2.195312 11.375 -2.71875 C 11.820312 -3.25 12.109375 -3.832031 12.234375 -4.46875 L 13.8125 -4.234375 C 13.664062 -3.359375 13.300781 -2.570312 12.71875 -1.875 C 12.132812 -1.175781 11.398438 -0.625 10.515625 -0.21875 C 9.640625 0.1875 8.671875 0.390625 7.609375 0.390625 Z M 7.609375 0.390625 "/></g></g><g style="fill:#bb1407;fill-opacity:1;"><g transform="translate(274.373796, 279.993058)"><path style="stroke:none" d="M 7.734375 0.390625 C 6.398438 0.390625 5.21875 0.109375 4.1875 -0.453125 C 3.15625 -1.023438 2.34375 -1.816406 1.75 -2.828125 C 1.164062 -3.847656 0.875 -5.023438 0.875 -6.359375 C 0.875 -7.691406 1.164062 -8.859375 1.75 -9.859375 C 2.34375 -10.867188 3.15625 -11.65625 4.1875 -12.21875 C 5.21875 -12.789062 6.398438 -13.078125 7.734375 -13.078125 C 9.078125 -13.078125 10.265625 -12.789062 11.296875 -12.21875 C 12.335938 -11.65625 13.148438 -10.867188 13.734375 -9.859375 C 14.316406 -8.859375 14.609375 -7.691406 14.609375 -6.359375 C 14.609375 -5.359375 14.441406 -4.445312 14.109375 -3.625 C 13.773438 -2.800781 13.296875 -2.085938 12.671875 -1.484375 C 12.054688 -0.890625 11.332031 -0.425781 10.5 -0.09375 C 9.664062 0.226562 8.742188 0.390625 7.734375 0.390625 Z M 7.734375 -1.046875 C 8.742188 -1.046875 9.640625 -1.269531 10.421875 -1.71875 C 11.203125 -2.164062 11.8125 -2.789062 12.25 -3.59375 C 12.695312 -4.40625 12.921875 -5.328125 12.921875 -6.359375 C 12.921875 -7.390625 12.695312 -8.300781 12.25 -9.09375 C 11.8125 -9.894531 11.203125 -10.519531 10.421875 -10.96875 C 9.640625 -11.425781 8.742188 -11.65625 7.734375 -11.65625 C 6.734375 -11.65625 5.84375 -11.425781 5.0625 -10.96875 C 4.28125 -10.519531 3.664062 -9.894531 3.21875 -9.09375 C 2.78125 -8.300781 2.5625 -7.390625 2.5625 -6.359375 C 2.5625 -5.328125 2.78125 -4.410156 3.21875 -3.609375 C 3.664062 -2.804688 4.28125 -2.175781 5.0625 -1.71875 C 5.84375 -1.269531 6.734375 -1.046875 7.734375 -1.046875 Z M 7.734375 -1.046875 "/></g></g><g style="fill:#bb1407;fill-opacity:1;"><g transform="translate(294.425743, 279.993058)"><path style="stroke:none" d="M 1.421875 0 L 1.421875 -12.6875 L 3.765625 -12.6875 L 8.3125 -2.03125 L 8.453125 -2.03125 L 12.984375 -12.6875 L 15.359375 -12.6875 L 15.359375 0 L 13.71875 0 L 13.71875 -10.46875 L 13.59375 -10.46875 L 9.109375 0 L 7.671875 0 L 3.1875 -10.4375 L 3.046875 -10.4375 L 3.046875 0 Z M 1.421875 0 "/></g></g></g></svg>