<?xml version="1.0" encoding="utf-8"?>
<!-- Generator: Adobe Illustrator 19.2.1, SVG Export Plug-In . SVG Version: 6.00 Build 0)  -->
<svg version="1.1" id="Layer_1" xmlns="http://www.w3.org/2000/svg" xmlns:xlink="http://www.w3.org/1999/xlink" x="0px" y="0px"
	 viewBox="0 0 561.6 216" style="enable-background:new 0 0 561.6 216;" xml:space="preserve">
<style type="text/css">
	.st0{fill:url(#SVGID_1_);}
	.st1{fill:url(#SVGID_2_);}
	.st2{fill:url(#SVGID_3_);}
	.st3{fill:url(#SVGID_4_);}
	.st4{fill:url(#SVGID_5_);}
	.st5{fill:url(#SVGID_6_);}
	.st6{fill:url(#SVGID_7_);}
	.st7{fill:url(#SVGID_8_);}
	.st8{fill:url(#SVGID_9_);}
	.st9{fill:#FFFFFF;}
	.st10{fill:url(#SVGID_10_);}
	.st11{fill:url(#SVGID_11_);}
	.st12{opacity:0.6;fill:url(#SVGID_12_);enable-background:new    ;}
	.st13{fill:url(#SVGID_13_);}
	.st14{fill:url(#SVGID_14_);}
	.st15{fill:url(#SVGID_15_);}
	.st16{fill:url(#SVGID_16_);}
	.st17{fill:url(#SVGID_17_);}
	.st18{fill:url(#SVGID_18_);}
	.st19{fill:url(#SVGID_19_);}
	.st20{fill:url(#SVGID_20_);}
	.st21{fill:url(#SVGID_21_);}
	.st22{fill:url(#SVGID_22_);}
	.st23{fill:url(#SVGID_23_);}
	.st24{fill:url(#SVGID_24_);}
	.st25{fill:url(#SVGID_25_);}
	.st26{fill:url(#SVGID_26_);}
	.st27{fill:url(#SVGID_27_);}
</style>
<g>
	
		<radialGradient id="SVGID_1_" cx="296.2893" cy="14.6418" r="47.4275" gradientTransform="matrix(1 0 0 -1 0 213.91)" gradientUnits="userSpaceOnUse">
		<stop  offset="0" style="stop-color:#3B3B3B"/>
		<stop  offset="0.206" style="stop-color:#353535"/>
		<stop  offset="0.4884" style="stop-color:#232323"/>
		<stop  offset="0.8136" style="stop-color:#060606"/>
		<stop  offset="0.8762" style="stop-color:#000000"/>
	</radialGradient>
	<polygon class="st0" points="304.5,177.5 291.8,132.7 248.6,144.9 261.3,189.8 279.4,171.4 	"/>
	
		<linearGradient id="SVGID_2_" gradientUnits="userSpaceOnUse" x1="1091.7286" y1="1357.2848" x2="1051.0004" y2="1357.2848" gradientTransform="matrix(0.2722 0.9622 0.8246 -0.2332 -1153.2244 -552.469)">
		<stop  offset="0" style="stop-color:#FF492D"/>
		<stop  offset="3.571010e-002" style="stop-color:#F84529"/>
		<stop  offset="0.2478" style="stop-color:#D52D13"/>
		<stop  offset="0.4217" style="stop-color:#C01E05"/>
		<stop  offset="0.5347" style="stop-color:#B81900"/>
		<stop  offset="1" style="stop-color:#FF492D"/>
	</linearGradient>
	<polygon class="st1" points="265.2,185.8 253.3,143.6 251.8,144 263.9,187.1 	"/>
	
		<linearGradient id="SVGID_3_" gradientUnits="userSpaceOnUse" x1="1091.767" y1="1399.9249" x2="1050.998" y2="1399.9249" gradientTransform="matrix(0.2722 0.9622 0.8246 -0.2332 -1153.2244 -552.469)">
		<stop  offset="0" style="stop-color:#FF492D"/>
		<stop  offset="3.571010e-002" style="stop-color:#F84529"/>
		<stop  offset="0.2478" style="stop-color:#D52D13"/>
		<stop  offset="0.4217" style="stop-color:#C01E05"/>
		<stop  offset="0.5347" style="stop-color:#B81900"/>
		<stop  offset="1" style="stop-color:#FF492D"/>
	</linearGradient>
	<polygon class="st2" points="286.9,134.1 298.8,176.2 300.6,176.6 288.4,133.7 	"/>
</g>
<g>
	
		<radialGradient id="SVGID_4_" cx="243.1435" cy="76.6451" r="64.6051" gradientTransform="matrix(1 0 0 -1 0 213.91)" gradientUnits="userSpaceOnUse">
		<stop  offset="0" style="stop-color:#3B3B3B"/>
		<stop  offset="0.206" style="stop-color:#353535"/>
		<stop  offset="0.4884" style="stop-color:#232323"/>
		<stop  offset="0.8136" style="stop-color:#060606"/>
		<stop  offset="0.8762" style="stop-color:#000000"/>
	</radialGradient>
	<polygon class="st3" points="247.7,190.8 270.4,150.2 231.2,128.3 208.5,168.9 234.3,168.8 	"/>
	
		<linearGradient id="SVGID_5_" gradientUnits="userSpaceOnUse" x1="587.1278" y1="2378.4246" x2="546.4037" y2="2378.4246" gradientTransform="matrix(-0.488 0.8729 0.748 0.4182 -1276.838 -1342.7451)">
		<stop  offset="0" style="stop-color:#FF492D"/>
		<stop  offset="3.571010e-002" style="stop-color:#F84529"/>
		<stop  offset="0.2478" style="stop-color:#D52D13"/>
		<stop  offset="0.4217" style="stop-color:#C01E05"/>
		<stop  offset="0.5347" style="stop-color:#B81900"/>
		<stop  offset="1" style="stop-color:#FF492D"/>
	</linearGradient>
	<polygon class="st4" points="214.1,168.9 235.4,130.6 234.1,129.9 212.3,168.9 	"/>
	
		<linearGradient id="SVGID_6_" gradientUnits="userSpaceOnUse" x1="587.1665" y1="2421.0249" x2="546.3999" y2="2421.0249" gradientTransform="matrix(-0.488 0.8729 0.748 0.4182 -1276.838 -1342.7451)">
		<stop  offset="0" style="stop-color:#FF492D"/>
		<stop  offset="3.571010e-002" style="stop-color:#F84529"/>
		<stop  offset="0.2478" style="stop-color:#D52D13"/>
		<stop  offset="0.4217" style="stop-color:#C01E05"/>
		<stop  offset="0.5347" style="stop-color:#B81900"/>
		<stop  offset="1" style="stop-color:#FF492D"/>
	</linearGradient>
	<polygon class="st5" points="266,147.7 244.6,185.9 245.6,187.4 267.3,148.5 	"/>
</g>
<linearGradient id="SVGID_7_" gradientUnits="userSpaceOnUse" x1="207.0009" y1="170.3092" x2="313.3653" y2="63.9447" gradientTransform="matrix(1 0 0 -1 0 213.91)">
	<stop  offset="0" style="stop-color:#FF492D"/>
	<stop  offset="3.571010e-002" style="stop-color:#F84529"/>
	<stop  offset="0.2478" style="stop-color:#D52D13"/>
	<stop  offset="0.4217" style="stop-color:#C01E05"/>
	<stop  offset="0.5347" style="stop-color:#B81900"/>
	<stop  offset="1" style="stop-color:#FF492D"/>
</linearGradient>
<path class="st6" d="M218.9,51.1c2.3-0.3,4.8-2.4,5.7-4.5s3.4-3.7,5.7-3.5s5.3-1.1,6.6-3s4.2-2.8,6.4-2c2.2,0.7,5.4,0.1,7.1-1.3
	c1.8-1.5,4.8-1.7,6.7-0.4c1.9,1.2,5.2,1.4,7.2,0.4c2.1-1,5-0.5,6.6,1.2s4.7,2.6,6.9,2.1c2.2-0.5,5,0.7,6.1,2.7s3.9,3.7,6.2,3.7
	c2.3,0.1,4.7,1.9,5.3,4.1c0.6,2.2,2.9,4.5,5.2,5.1c2.2,0.6,4.1,3,4.2,5.3s1.8,5.1,3.8,6.2s3.3,3.9,2.8,6.1s0.5,5.4,2.2,6.9
	c1.7,1.6,2.2,4.5,1.2,6.6s-0.8,5.3,0.5,7.2c1.3,1.9,1.1,4.9-0.4,6.7c-1.5,1.8-2,5-1.3,7.1c0.8,2.2-0.1,5-2,6.4
	c-1.8,1.4-3.2,4.3-3,6.6c0.2,2.3-1.3,4.9-3.4,5.8s-4.1,3.5-4.4,5.7c-0.3,2.3-2.5,4.4-4.7,4.8c-2.3,0.3-4.8,2.4-5.7,4.5
	c-0.9,2.1-3.4,3.7-5.7,3.5c-2.3-0.2-5.3,1.1-6.6,3c-1.3,1.9-4.2,2.8-6.4,2c-2.2-0.7-5.4-0.1-7.1,1.3c-1.8,1.5-4.8,1.7-6.7,0.4
	c-1.9-1.2-5.2-1.4-7.2-0.4c-2.1,1-5,0.5-6.6-1.2s-4.7-2.6-6.9-2.1s-5-0.7-6.1-2.7s-3.9-3.7-6.2-3.7c-2.3-0.1-4.7-1.9-5.3-4.1
	c-0.6-2.2-2.9-4.5-5.2-5.1c-2.2-0.6-4.1-3-4.2-5.3c-0.1-2.3-1.8-5.1-3.8-6.2s-3.3-3.9-2.8-6.1s-0.5-5.4-2.2-6.9
	c-1.7-1.6-2.2-4.5-1.2-6.6s0.8-5.3-0.5-7.2c-1.3-1.9-1.1-4.9,0.4-6.7c1.5-1.8,2-5,1.3-7.1c-0.8-2.2,0.1-5,2-6.4
	c1.8-1.4,3.2-4.3,2.9-6.6c-0.2-2.3,1.3-4.9,3.4-5.8c2.1-0.9,4.1-3.5,4.5-5.7C214.5,53.6,216.6,51.5,218.9,51.1z"/>
<linearGradient id="SVGID_8_" gradientUnits="userSpaceOnUse" x1="216.8605" y1="160.4495" x2="299.5728" y2="77.7372" gradientTransform="matrix(1 0 0 -1 0 213.91)">
	<stop  offset="0" style="stop-color:#FF492D"/>
	<stop  offset="3.571010e-002" style="stop-color:#F84529"/>
	<stop  offset="0.2478" style="stop-color:#D52D13"/>
	<stop  offset="0.4217" style="stop-color:#C01E05"/>
	<stop  offset="0.5347" style="stop-color:#B81900"/>
	<stop  offset="1" style="stop-color:#FF492D"/>
</linearGradient>
<path class="st7" d="M295.4,136.4c-2.2,0.3-4.7,2.3-5.6,4.4c-0.8,2.1-3.4,3.6-5.6,3.4c-2.2-0.2-5.2,1.1-6.5,3
	c-1.3,1.8-4.2,2.7-6.3,2c-2.1-0.7-5.3-0.1-7,1.3c-1.7,1.5-4.7,1.7-6.6,0.4c-1.9-1.2-5.1-1.4-7.1-0.4s-4.9,0.5-6.5-1.2
	c-1.5-1.6-4.6-2.6-6.8-2.1s-4.9-0.7-6-2.7s-3.9-3.6-6.1-3.7c-2.3-0.1-4.6-1.9-5.2-4c-0.6-2.2-2.9-4.4-5.1-5c-2.2-0.6-4-2.9-4.1-5.2
	s-1.7-5-3.7-6.1s-3.2-3.8-2.7-6s-0.5-5.3-2.2-6.8s-2.2-4.5-1.2-6.5s0.8-5.2-0.5-7.1c-1.2-1.9-1.1-4.8,0.4-6.6c1.4-1.7,2-4.9,1.3-7
	c-0.8-2.1,0.1-5,1.9-6.3c1.8-1.3,3.1-4.3,2.9-6.5c-0.2-2.2,1.3-4.8,3.4-5.7c2.1-0.9,4.1-3.4,4.4-5.6c0.3-2.2,2.4-4.3,4.6-4.7
	c2.2-0.3,4.7-2.3,5.6-4.4c0.8-2.1,3.4-3.6,5.6-3.4c2.2,0.2,5.2-1.1,6.5-3c1.3-1.8,4.2-2.7,6.3-2s5.3,0.1,7-1.3
	c1.7-1.5,4.7-1.6,6.6-0.4c1.9,1.2,5.1,1.4,7.1,0.4s4.9-0.5,6.5,1.2c1.5,1.6,4.6,2.6,6.8,2.1c2.2-0.5,4.9,0.7,6,2.7s3.9,3.6,6.1,3.7
	c2.3,0.1,4.6,1.9,5.2,4c0.6,2.2,2.9,4.4,5.1,5s4,2.9,4.1,5.2s1.7,5,3.7,6.1c2,1.1,3.2,3.8,2.7,6s0.5,5.3,2.2,6.8s2.2,4.5,1.2,6.5
	s-0.8,5.2,0.5,7.1c1.2,1.9,1.1,4.8-0.4,6.6c-1.4,1.7-2,4.9-1.3,7c0.8,2.1-0.1,5-1.9,6.3s-3.1,4.3-2.9,6.5s-1.3,4.8-3.4,5.7
	c-2.1,0.9-4.1,3.4-4.4,5.6C299.7,134,297.7,136.1,295.4,136.4z"/>
<linearGradient id="SVGID_9_" gradientUnits="userSpaceOnUse" x1="214.3931" y1="162.9169" x2="296.4798" y2="80.8302" gradientTransform="matrix(1 0 0 -1 0 213.91)">
	<stop  offset="0" style="stop-color:#FF492D"/>
	<stop  offset="3.571010e-002" style="stop-color:#F84529"/>
	<stop  offset="0.2478" style="stop-color:#D52D13"/>
	<stop  offset="0.4217" style="stop-color:#C01E05"/>
	<stop  offset="0.5347" style="stop-color:#B81900"/>
	<stop  offset="1" style="stop-color:#FF492D"/>
</linearGradient>
<circle class="st8" cx="257.5" cy="94.1" r="54"/>
<circle class="st9" cx="257.5" cy="94.1" r="53.1"/>
<linearGradient id="SVGID_10_" gradientUnits="userSpaceOnUse" x1="218.0267" y1="159.2832" x2="293.1934" y2="84.1166" gradientTransform="matrix(1 0 0 -1 0 213.91)">
	<stop  offset="0" style="stop-color:#FF492D"/>
	<stop  offset="3.571010e-002" style="stop-color:#F84529"/>
	<stop  offset="0.2478" style="stop-color:#D52D13"/>
	<stop  offset="0.4217" style="stop-color:#C01E05"/>
	<stop  offset="0.5347" style="stop-color:#B81900"/>
	<stop  offset="1" style="stop-color:#FF492D"/>
</linearGradient>
<circle class="st10" cx="257.5" cy="94.1" r="49.4"/>
<radialGradient id="SVGID_11_" cx="257.4" cy="119.71" r="44.8828" gradientTransform="matrix(1 0 0 -1 0 213.91)" gradientUnits="userSpaceOnUse">
	<stop  offset="0" style="stop-color:#3B3B3B"/>
	<stop  offset="0.206" style="stop-color:#353535"/>
	<stop  offset="0.4884" style="stop-color:#232323"/>
	<stop  offset="0.8136" style="stop-color:#060606"/>
	<stop  offset="0.8762" style="stop-color:#000000"/>
</radialGradient>
<path class="st11" d="M232.8,135.5h49.3c14.1-8.4,23.5-23.8,23.5-41.3s-9.4-32.9-23.4-41.3h-49.6c-14,8.4-23.4,23.8-23.4,41.3
	C209.3,111.7,218.7,127.1,232.8,135.5z"/>
<radialGradient id="SVGID_12_" cx="263.2745" cy="116.1018" r="103.0704" gradientTransform="matrix(1 0 0 -1 0 213.91)" gradientUnits="userSpaceOnUse">
	<stop  offset="0.1348" style="stop-color:#969696"/>
	<stop  offset="0.1364" style="stop-color:#959595"/>
	<stop  offset="0.2262" style="stop-color:#6E6E6E"/>
	<stop  offset="0.3206" style="stop-color:#4C4C4C"/>
	<stop  offset="0.422" style="stop-color:#303030"/>
	<stop  offset="0.5309" style="stop-color:#1B1B1B"/>
	<stop  offset="0.6512" style="stop-color:#0C0C0C"/>
	<stop  offset="0.7915" style="stop-color:#030303"/>
	<stop  offset="1" style="stop-color:#000000"/>
</radialGradient>
<path class="st12" d="M201.1,101.3c-1,2-0.4,4.9,1.2,6.5c1.7,1.5,2.6,4.6,2.2,6.8c-0.5,2.2,0.8,4.9,2.7,6c2,1.1,3.6,3.8,3.7,6.1
	c0.1,2.3,1.9,4.6,4.1,5.2c1,0.3,1.9,0.8,2.8,1.6c5.9-12.6,14.2-23.9,24.8-33.8c13.1-14.1,28.5-24,46.4-29.8c5-2.6,10.1-4.8,15.3-6.6
	c-0.2-0.6-0.3-1.2-0.3-1.7c-0.1-2.3-1.9-4.6-4.1-5.2c-2.2-0.6-4.5-2.8-5.1-5s-2.9-4-5.2-4c-2.3-0.1-5-1.7-6.1-3.7s-3.8-3.2-6-2.7
	s-5.3-0.5-6.8-2.1s-4.5-2.2-6.5-1.2s-5.2,0.8-7.1-0.4s-4.9-1-6.6,0.4c-1.7,1.5-4.9,2.1-7,1.3c-2.1-0.7-5,0.2-6.3,2s-4.2,3.2-6.5,3
	c-2.2-0.2-4.8,1.3-5.6,3.4c-0.8,2.1-3.4,4.1-5.6,4.4c-2.2,0.3-4.3,2.4-4.6,4.7c-0.3,2.2-2.3,4.8-4.4,5.6c-2.1,0.9-3.6,3.4-3.4,5.7
	c0.2,2.2-1.1,5.2-2.9,6.5c-1.8,1.3-2.7,4.2-1.9,6.3c0.8,2.1,0.2,5.3-1.3,7c-1.4,1.7-1.6,4.7-0.4,6.6
	C201.9,96.1,202.1,99.3,201.1,101.3z"/>
<g>
	
		<linearGradient id="SVGID_13_" gradientUnits="userSpaceOnUse" x1="234.5" y1="136.061" x2="234.5" y2="94.6976" gradientTransform="matrix(1 0 0 -1 0 213.91)">
		<stop  offset="0.3856" style="stop-color:#FFFFFF"/>
		<stop  offset="0.4419" style="stop-color:#F9F9F9"/>
		<stop  offset="0.5191" style="stop-color:#E7E7E7"/>
		<stop  offset="0.6085" style="stop-color:#CACACA"/>
		<stop  offset="0.707" style="stop-color:#A2A2A2"/>
		<stop  offset="0.813" style="stop-color:#6E6E6E"/>
		<stop  offset="0.9235" style="stop-color:#303030"/>
		<stop  offset="1" style="stop-color:#000000"/>
	</linearGradient>
	<path class="st13" d="M229,77.1h11v3.8h-5.4v6.4h4.7v3.9h-4.7v11.3H229V77.1z"/>
	
		<linearGradient id="SVGID_14_" gradientUnits="userSpaceOnUse" x1="250.8" y1="136.061" x2="250.8" y2="94.6976" gradientTransform="matrix(1 0 0 -1 0 213.91)">
		<stop  offset="0.3856" style="stop-color:#FFFFFF"/>
		<stop  offset="0.4419" style="stop-color:#F9F9F9"/>
		<stop  offset="0.5191" style="stop-color:#E7E7E7"/>
		<stop  offset="0.6085" style="stop-color:#CACACA"/>
		<stop  offset="0.707" style="stop-color:#A2A2A2"/>
		<stop  offset="0.813" style="stop-color:#6E6E6E"/>
		<stop  offset="0.9235" style="stop-color:#303030"/>
		<stop  offset="1" style="stop-color:#000000"/>
	</linearGradient>
	<path class="st14" d="M242.9,77.1h7c2.8,0,4.9,0.5,6.3,1.5s2.1,2.7,2.1,5.2c0,1.7-0.2,3-0.7,4c-0.4,1-1.3,1.8-2.4,2.4l3.5,12.3
		h-5.8l-2.8-11.4h-1.6v11.4h-5.6L242.9,77.1L242.9,77.1z M250.1,87.9c1.1,0,1.9-0.3,2.4-0.9c0.4-0.6,0.7-1.5,0.7-2.7
		c0-1.1-0.2-2-0.6-2.6c-0.4-0.6-1.1-0.9-2.2-0.9h-1.8v7L250.1,87.9L250.1,87.9z"/>
	
		<linearGradient id="SVGID_15_" gradientUnits="userSpaceOnUse" x1="267.85" y1="136.061" x2="267.85" y2="94.6976" gradientTransform="matrix(1 0 0 -1 0 213.91)">
		<stop  offset="0.3856" style="stop-color:#FFFFFF"/>
		<stop  offset="0.4419" style="stop-color:#F9F9F9"/>
		<stop  offset="0.5191" style="stop-color:#E7E7E7"/>
		<stop  offset="0.6085" style="stop-color:#CACACA"/>
		<stop  offset="0.707" style="stop-color:#A2A2A2"/>
		<stop  offset="0.813" style="stop-color:#6E6E6E"/>
		<stop  offset="0.9235" style="stop-color:#303030"/>
		<stop  offset="1" style="stop-color:#000000"/>
	</linearGradient>
	<path class="st15" d="M262.1,77.1h11.4v3.8h-5.8v6.3h4.4v3.9h-4.4v7.6h5.9v3.8h-11.5V77.1z"/>
	
		<linearGradient id="SVGID_16_" gradientUnits="userSpaceOnUse" x1="282.15" y1="136.061" x2="282.15" y2="94.6976" gradientTransform="matrix(1 0 0 -1 0 213.91)">
		<stop  offset="0.3856" style="stop-color:#FFFFFF"/>
		<stop  offset="0.4419" style="stop-color:#F9F9F9"/>
		<stop  offset="0.5191" style="stop-color:#E7E7E7"/>
		<stop  offset="0.6085" style="stop-color:#CACACA"/>
		<stop  offset="0.707" style="stop-color:#A2A2A2"/>
		<stop  offset="0.813" style="stop-color:#6E6E6E"/>
		<stop  offset="0.9235" style="stop-color:#303030"/>
		<stop  offset="1" style="stop-color:#000000"/>
	</linearGradient>
	<path class="st16" d="M276.4,77.1h11.4v3.8H282v6.3h4.4v3.9H282v7.6h5.9v3.8h-11.5V77.1z"/>
</g>
<g>
	
		<linearGradient id="SVGID_17_" gradientUnits="userSpaceOnUse" x1="234.25" y1="91.8722" x2="234.25" y2="112.9313" gradientTransform="matrix(1 0 0 -1 0 213.91)">
		<stop  offset="0.3856" style="stop-color:#FFFFFF"/>
		<stop  offset="0.4419" style="stop-color:#F9F9F9"/>
		<stop  offset="0.5191" style="stop-color:#E7E7E7"/>
		<stop  offset="0.6085" style="stop-color:#CACACA"/>
		<stop  offset="0.707" style="stop-color:#A2A2A2"/>
		<stop  offset="0.813" style="stop-color:#6E6E6E"/>
		<stop  offset="0.9235" style="stop-color:#303030"/>
		<stop  offset="1" style="stop-color:#000000"/>
	</linearGradient>
	<path class="st17" d="M232,108.1h-3.1v-3.4h10.7v3.4h-3.1v17.1H232V108.1z"/>
	
		<linearGradient id="SVGID_18_" gradientUnits="userSpaceOnUse" x1="247.95" y1="91.8722" x2="247.95" y2="112.9313" gradientTransform="matrix(1 0 0 -1 0 213.91)">
		<stop  offset="0.3856" style="stop-color:#FFFFFF"/>
		<stop  offset="0.4419" style="stop-color:#F9F9F9"/>
		<stop  offset="0.5191" style="stop-color:#E7E7E7"/>
		<stop  offset="0.6085" style="stop-color:#CACACA"/>
		<stop  offset="0.707" style="stop-color:#A2A2A2"/>
		<stop  offset="0.813" style="stop-color:#6E6E6E"/>
		<stop  offset="0.9235" style="stop-color:#303030"/>
		<stop  offset="1" style="stop-color:#000000"/>
	</linearGradient>
	<path class="st18" d="M241.6,104.7h5.6c2.2,0,3.9,0.4,5.1,1.2c1.1,0.8,1.7,2.2,1.7,4.2c0,1.4-0.2,2.4-0.5,3.3c-0.4,0.8-1,1.4-2,1.9
		l2.8,9.9h-4.7l-2.2-9.2h-1.3v9.2h-4.5L241.6,104.7L241.6,104.7z M247.4,113.4c0.9,0,1.5-0.2,1.9-0.7s0.5-1.2,0.5-2.2
		c0-0.9-0.2-1.6-0.5-2.1s-0.9-0.7-1.7-0.7h-1.5v5.7C246.1,113.4,247.4,113.4,247.4,113.4z"/>
	
		<linearGradient id="SVGID_19_" gradientUnits="userSpaceOnUse" x1="259.25" y1="91.8722" x2="259.25" y2="112.9313" gradientTransform="matrix(1 0 0 -1 0 213.91)">
		<stop  offset="0.3856" style="stop-color:#FFFFFF"/>
		<stop  offset="0.4419" style="stop-color:#F9F9F9"/>
		<stop  offset="0.5191" style="stop-color:#E7E7E7"/>
		<stop  offset="0.6085" style="stop-color:#CACACA"/>
		<stop  offset="0.707" style="stop-color:#A2A2A2"/>
		<stop  offset="0.813" style="stop-color:#6E6E6E"/>
		<stop  offset="0.9235" style="stop-color:#303030"/>
		<stop  offset="1" style="stop-color:#000000"/>
	</linearGradient>
	<path class="st19" d="M257,104.7h4.5v20.4H257V104.7z"/>
	
		<linearGradient id="SVGID_20_" gradientUnits="userSpaceOnUse" x1="270.15" y1="91.8722" x2="270.15" y2="112.9313" gradientTransform="matrix(1 0 0 -1 0 213.91)">
		<stop  offset="0.3856" style="stop-color:#FFFFFF"/>
		<stop  offset="0.4419" style="stop-color:#F9F9F9"/>
		<stop  offset="0.5191" style="stop-color:#E7E7E7"/>
		<stop  offset="0.6085" style="stop-color:#CACACA"/>
		<stop  offset="0.707" style="stop-color:#A2A2A2"/>
		<stop  offset="0.813" style="stop-color:#6E6E6E"/>
		<stop  offset="0.9235" style="stop-color:#303030"/>
		<stop  offset="1" style="stop-color:#000000"/>
	</linearGradient>
	<path class="st20" d="M267.7,104.7h5.1l3.8,20.4h-4.2l-0.7-4.3h-3l-0.7,4.3h-4.3L267.7,104.7z M271.4,118.1l-1.1-8l-1.1,8H271.4z"
		/>
	
		<linearGradient id="SVGID_21_" gradientUnits="userSpaceOnUse" x1="283.6" y1="91.8722" x2="283.6" y2="112.9313" gradientTransform="matrix(1 0 0 -1 0 213.91)">
		<stop  offset="0.3856" style="stop-color:#FFFFFF"/>
		<stop  offset="0.4419" style="stop-color:#F9F9F9"/>
		<stop  offset="0.5191" style="stop-color:#E7E7E7"/>
		<stop  offset="0.6085" style="stop-color:#CACACA"/>
		<stop  offset="0.707" style="stop-color:#A2A2A2"/>
		<stop  offset="0.813" style="stop-color:#6E6E6E"/>
		<stop  offset="0.9235" style="stop-color:#303030"/>
		<stop  offset="1" style="stop-color:#000000"/>
	</linearGradient>
	<path class="st21" d="M279,104.7h4.5v17.4h4.7v3.1H279V104.7z"/>
</g>
<g>
	
		<linearGradient id="SVGID_22_" gradientUnits="userSpaceOnUse" x1="232.45" y1="150.4161" x2="232.45" y2="130.5086" gradientTransform="matrix(1 0 0 -1 0 213.91)">
		<stop  offset="0.3856" style="stop-color:#FFFFFF"/>
		<stop  offset="0.4419" style="stop-color:#F9F9F9"/>
		<stop  offset="0.5191" style="stop-color:#E7E7E7"/>
		<stop  offset="0.6085" style="stop-color:#CACACA"/>
		<stop  offset="0.707" style="stop-color:#A2A2A2"/>
		<stop  offset="0.813" style="stop-color:#6E6E6E"/>
		<stop  offset="0.9235" style="stop-color:#303030"/>
		<stop  offset="1" style="stop-color:#000000"/>
	</linearGradient>
	<path class="st22" d="M230,74.2c-0.5-0.6-0.8-1.6-0.8-2.8V71h2.5v0.4c0,0.6,0.1,1,0.2,1.3c0.1,0.3,0.4,0.4,0.7,0.4s0.5-0.1,0.6-0.4
		c0.1-0.2,0.2-0.7,0.2-1.2c0-0.6-0.1-1.1-0.3-1.4s-0.5-0.4-1-0.5h-0.5v-1.7h0.4c0.5,0,0.8-0.1,1-0.4s0.3-0.7,0.3-1.4
		c0-0.5-0.1-0.8-0.2-1.1c-0.1-0.2-0.4-0.4-0.7-0.4s-0.5,0.1-0.6,0.4s-0.2,0.6-0.2,1.1v0.6h-2.5V66c0-1.1,0.3-1.9,0.9-2.5
		c0.6-0.6,1.4-0.9,2.4-0.9s1.9,0.3,2.4,0.8c0.6,0.6,0.9,1.4,0.9,2.4c0,0.7-0.1,1.3-0.4,1.7c-0.3,0.5-0.6,0.8-1,0.9
		c0.5,0.2,0.8,0.5,1.1,0.9s0.4,1.1,0.4,1.9c0,1.2-0.3,2.1-0.8,2.7c-0.5,0.7-1.4,1-2.5,1C231.3,75.2,230.5,74.8,230,74.2z"/>
	
		<linearGradient id="SVGID_23_" gradientUnits="userSpaceOnUse" x1="241.9" y1="150.4161" x2="241.9" y2="130.5086" gradientTransform="matrix(1 0 0 -1 0 213.91)">
		<stop  offset="0.3856" style="stop-color:#FFFFFF"/>
		<stop  offset="0.4419" style="stop-color:#F9F9F9"/>
		<stop  offset="0.5191" style="stop-color:#E7E7E7"/>
		<stop  offset="0.6085" style="stop-color:#CACACA"/>
		<stop  offset="0.707" style="stop-color:#A2A2A2"/>
		<stop  offset="0.813" style="stop-color:#6E6E6E"/>
		<stop  offset="0.9235" style="stop-color:#303030"/>
		<stop  offset="1" style="stop-color:#000000"/>
	</linearGradient>
	<path class="st23" d="M239.5,74.2c-0.6-0.6-0.8-1.5-0.8-2.5v-5.4c0-1.1,0.3-2,0.8-2.6c0.5-0.6,1.4-0.9,2.4-0.9s1.9,0.3,2.4,0.9
		s0.8,1.5,0.8,2.6v5.4c0,1-0.3,1.9-0.8,2.5c-0.6,0.6-1.4,0.9-2.4,0.9C240.9,75.2,240.1,74.8,239.5,74.2z M242.5,72.6
		c0.1-0.3,0.1-0.6,0.1-0.9v-5.3c0-0.4,0-0.7-0.1-1s-0.3-0.4-0.6-0.4s-0.5,0.1-0.6,0.4s-0.1,0.6-0.1,1v5.3c0,0.9,0.2,1.3,0.7,1.3
		C242.2,73,242.4,72.8,242.5,72.6z"/>
	
		<linearGradient id="SVGID_24_" gradientUnits="userSpaceOnUse" x1="257.35" y1="150.4161" x2="257.35" y2="130.5086" gradientTransform="matrix(1 0 0 -1 0 213.91)">
		<stop  offset="0.3856" style="stop-color:#FFFFFF"/>
		<stop  offset="0.4419" style="stop-color:#F9F9F9"/>
		<stop  offset="0.5191" style="stop-color:#E7E7E7"/>
		<stop  offset="0.6085" style="stop-color:#CACACA"/>
		<stop  offset="0.707" style="stop-color:#A2A2A2"/>
		<stop  offset="0.813" style="stop-color:#6E6E6E"/>
		<stop  offset="0.9235" style="stop-color:#303030"/>
		<stop  offset="1" style="stop-color:#000000"/>
	</linearGradient>
	<path class="st24" d="M253.9,63h3c1,0,1.8,0.1,2.4,0.4c0.6,0.3,1,0.7,1.2,1.2s0.4,1.3,0.4,2.2v4.3c0,0.9-0.1,1.7-0.4,2.2
		c-0.2,0.6-0.6,1-1.2,1.2c-0.6,0.3-1.4,0.4-2.4,0.4h-3.1V63H253.9z M257,73.1c0.4,0,0.7-0.1,0.8-0.2c0.2-0.1,0.3-0.3,0.3-0.5
		s0.1-0.5,0.1-0.9v-5.2c0-0.4,0-0.7-0.1-0.9c-0.1-0.2-0.2-0.4-0.4-0.5c-0.2-0.1-0.5-0.1-0.8-0.1h-0.4v8.3
		C256.5,73.1,257,73.1,257,73.1z"/>
	
		<linearGradient id="SVGID_25_" gradientUnits="userSpaceOnUse" x1="267.15" y1="150.4161" x2="267.1501" y2="130.5086" gradientTransform="matrix(1 0 0 -1 0 213.91)">
		<stop  offset="0.3856" style="stop-color:#FFFFFF"/>
		<stop  offset="0.4419" style="stop-color:#F9F9F9"/>
		<stop  offset="0.5191" style="stop-color:#E7E7E7"/>
		<stop  offset="0.6085" style="stop-color:#CACACA"/>
		<stop  offset="0.707" style="stop-color:#A2A2A2"/>
		<stop  offset="0.813" style="stop-color:#6E6E6E"/>
		<stop  offset="0.9235" style="stop-color:#303030"/>
		<stop  offset="1" style="stop-color:#000000"/>
	</linearGradient>
	<path class="st25" d="M265.7,63h3l2.2,12h-2.4l-0.4-2.5h-1.8l-0.4,2.5h-2.5L265.7,63z M267.8,70.8l-0.6-4.7l-0.6,4.7H267.8z"/>
	
		<linearGradient id="SVGID_26_" gradientUnits="userSpaceOnUse" x1="275.9" y1="150.4161" x2="275.9" y2="130.5086" gradientTransform="matrix(1 0 0 -1 0 213.91)">
		<stop  offset="0.3856" style="stop-color:#FFFFFF"/>
		<stop  offset="0.4419" style="stop-color:#F9F9F9"/>
		<stop  offset="0.5191" style="stop-color:#E7E7E7"/>
		<stop  offset="0.6085" style="stop-color:#CACACA"/>
		<stop  offset="0.707" style="stop-color:#A2A2A2"/>
		<stop  offset="0.813" style="stop-color:#6E6E6E"/>
		<stop  offset="0.9235" style="stop-color:#303030"/>
		<stop  offset="1" style="stop-color:#000000"/>
	</linearGradient>
	<path class="st26" d="M274.7,70l-2.3-7.1h2.5l1.1,3.8l1-3.8h2.4l-2.2,7.1v4.9h-2.5V70z"/>
	
		<linearGradient id="SVGID_27_" gradientUnits="userSpaceOnUse" x1="285.15" y1="150.4161" x2="285.15" y2="130.5085" gradientTransform="matrix(1 0 0 -1 0 213.91)">
		<stop  offset="0.3856" style="stop-color:#FFFFFF"/>
		<stop  offset="0.4419" style="stop-color:#F9F9F9"/>
		<stop  offset="0.5191" style="stop-color:#E7E7E7"/>
		<stop  offset="0.6085" style="stop-color:#CACACA"/>
		<stop  offset="0.707" style="stop-color:#A2A2A2"/>
		<stop  offset="0.813" style="stop-color:#6E6E6E"/>
		<stop  offset="0.9235" style="stop-color:#303030"/>
		<stop  offset="1" style="stop-color:#000000"/>
	</linearGradient>
	<path class="st27" d="M282.6,74.2c-0.6-0.6-0.9-1.6-0.9-2.9L284,71c0,0.8,0.1,1.3,0.3,1.6c0.2,0.3,0.4,0.5,0.8,0.5s0.7-0.3,0.7-0.9
		c0-0.5-0.1-0.9-0.3-1.2c-0.2-0.3-0.5-0.7-1-1.1l-1-0.9c-0.5-0.4-0.9-0.9-1.2-1.4c-0.3-0.5-0.4-1.1-0.4-1.7c0-1,0.3-1.8,0.9-2.3
		s1.4-0.8,2.5-0.8s1.9,0.3,2.3,1s0.6,1.5,0.7,2.4l-2.3,0.3c0-0.6-0.1-1.1-0.2-1.3c-0.1-0.3-0.3-0.4-0.6-0.4c-0.2,0-0.4,0.1-0.5,0.3
		c-0.1,0.2-0.2,0.4-0.2,0.6c0,0.4,0.1,0.7,0.3,1c0.2,0.3,0.5,0.6,0.9,0.9l1,0.9c0.6,0.5,1,1,1.4,1.6c0.3,0.6,0.5,1.2,0.5,2
		c0,0.6-0.1,1.1-0.4,1.5c-0.3,0.5-0.6,0.8-1.1,1.1c-0.5,0.3-1,0.4-1.6,0.4C284,75.1,283.1,74.8,282.6,74.2z"/>
</g>
</svg>
